<svg width="17px" height="14px" viewBox="0 0 17 14" version="1.1" xmlns="http://www.w3.org/2000/svg" xmlns:xlink="http://www.w3.org/1999/xlink">
<g stroke="none" stroke-width="1" fill="none" fill-rule="evenodd">
    <g transform="translate(-1469.000000, -32.000000)" fill="#666666" fill-rule="nonzero">
        <g>
            <g>
                <g transform="translate(1323.000000, 25.000000)">
                    <g transform="translate(139.000000, 0.000000)">
                        <path d="M14,20.75 C10.2720779,20.75 7.25,17.7279221 7.25,14 C7.25,10.2720779 10.2720779,7.25 14,7.25 C17.7279221,7.25 20.75,10.2720779 20.75,14 C20.75,17.7279221 17.7279221,20.75 14,20.75 Z M14,19.25 C16.8994949,19.25 19.25,16.8994949 19.25,14 C19.25,11.1005051 16.8994949,8.75 14,8.75 C11.1005051,8.75 8.75,11.1005051 8.75,14 C8.75,16.8994949 11.1005051,19.25 14,19.25 Z" id="Oval"></path>
                        <path d="M19.0640714,18.1103001 C18.7270119,17.8695434 18.6489432,17.4011308 18.8896999,17.0640714 C19.1304566,16.7270119 19.5988692,16.6489432 19.9359286,16.8896999 L23.4359286,19.3896999 C23.7729881,19.6304566 23.8510568,20.0988692 23.6103001,20.4359286 C23.3695434,20.7729881 22.9011308,20.8510568 22.5640714,20.6103001 L19.0640714,18.1103001 Z" id="Line-2"></path>
                    </g>
                </g>
            </g>
        </g>
    </g>
</g>
</svg>