<svg width="108px" fill="#008cff" height="21px" viewBox="0 0 108 21" version="1.1" xmlns="http://www.w3.org/2000/svg"><g id="页面-1" stroke="none" stroke-width="1" fill-rule="evenodd"><g id="编组" transform="translate(0.999800, 0.999800)"><polygon id="Fill-1" points="53.3530588 20 56.6877647 20 56.6877647 0 53.3530588 0"></polygon><path d="M103.371647,0.000176470588 L103.371647,15.0003235 C103.371647,15.9199718 102.625176,16.6667451 101.704588,16.6667451 L98.3698824,16.6667451 L96.7022353,16.6667451 L91.7004706,16.6667451 C90.7798824,16.6667451 90.0334118,15.9199718 90.0334118,15.0003235 L90.0334118,0.000176470588 L86.6987059,0.000176470588 L86.6987059,15.8335343 C86.6987059,18.1344193 88.5651765,20.0001765 90.8669412,20.0001765 L96.7022353,20.0001765 L98.3698824,20.0001765 L102.538118,20.0001765 C104.839882,20.0001765 106.706353,18.1344193 106.706353,15.8335343 L106.706353,0.000176470588 L103.371647,0.000176470588 Z" id="Fill-2"></path><path d="M22.5082353,0.000176470588 L15.0052941,0.000176470588 L11.6711765,0.000176470588 L4.16823529,0.000176470588 C1.86588235,0.000176470588 -2.71678105e-14,1.865236 -2.71678105e-14,4.16657365 L-2.71678105e-14,19.9990005 L3.33470588,19.9990005 L3.33470588,4.99973549 C3.33470588,4.07896524 4.08117647,3.33282383 5.00176471,3.33282383 L11.6711765,3.33282383 L11.6711765,20.0001765 L15.0052941,20.0001765 L15.0052941,3.33282383 L21.6747059,3.33282383 C22.5952941,3.33282383 23.3423529,4.07896524 23.3423529,4.99973549 L23.3423529,19.9990005 L26.6764706,19.9990005 L26.6764706,4.16657365 C26.6764706,1.865236 24.8105882,0.000176470588 22.5082353,0.000176470588" id="Fill-4"></path><path d="M31.6787647,4.16717644 L31.6787647,4.16717644 L31.6787647,15.8336471 C31.6787647,18.1345997 33.5446471,20.0004118 35.847,20.0004118 L48.3517059,20.0004118 L48.3517059,16.6668824 L36.6805294,16.6668824 C35.7593529,16.6668824 35.0128824,15.9212632 35.0128824,15.0004118 L35.0128824,13.3333531 L35.0128824,11.6674704 L48.3517059,11.6674704 L48.3517059,8.33394111 L35.0128824,8.33394111 L35.0128824,5.00041176 C35.0128824,4.0795603 35.7593529,3.33335308 36.6805294,3.33335308 L48.3517059,3.33335308 L48.3517059,0.000411764706 L35.847,0.000411764706 C33.5446471,0.000411764706 31.6787647,1.8656358 31.6787647,4.16717644" id="Fill-6"></path><path d="M81.6971176,2.50017657 C81.6971176,1.11948741 80.5771176,0.000470588235 79.1959412,0.000470588235 L61.6894706,0.000470588235 L61.6894706,3.3334119 L76.7135882,3.3334119 L62.523,15.6367166 L62.5253529,15.6384807 C62.0135882,16.0965543 61.6894706,16.7598496 61.6894706,17.5001766 C61.6894706,18.8814538 62.8094706,20.0004706 64.1900588,20.0004706 L81.6971176,20.0004706 L81.6971176,16.6669412 L66.6653529,16.6669412 L80.7418235,4.46242519 C81.3224118,4.0049396 81.6971176,3.29695418 81.6971176,2.50017657" id="Fill-8"></path></g></g></svg>